<svg width="1013" height="251" viewBox="0 0 1013 251" fill="none" xmlns="http://www.w3.org/2000/svg">
<path d="M101.914 114.678H166.825V135.376H101.914V114.678Z" fill="#424244"/>
<path d="M374.636 215.697C371.876 218.601 368.915 221.403 365.781 224.091C362.634 226.765 359.342 229.18 355.893 231.336C352.443 233.52 348.792 235.216 344.969 236.452C341.131 237.674 337.149 238.292 333.01 238.292C325.953 238.292 318.838 237.027 311.68 234.498C304.55 231.968 297.105 229.036 289.372 225.701C281.625 222.395 273.504 219.219 264.995 216.157C256.485 213.081 247.243 210.94 237.282 209.718L243.032 199.599C250.391 198.219 257.635 197.874 264.765 198.564C271.894 199.254 278.937 200.404 285.922 202.014C292.893 203.623 299.865 205.42 306.85 207.418C313.864 209.402 320.893 211.011 327.95 212.248C334.993 213.469 342.209 214.044 349.568 213.972C356.927 213.886 364.517 212.549 372.336 209.948L374.636 215.697ZM205.488 109.391C205.488 97.4321 207.17 86.3645 210.548 76.1593C213.911 65.9254 218.899 57.1 225.496 49.6546C232.122 42.2235 240.272 36.4309 249.931 32.2914C259.59 28.1518 270.701 26.082 283.278 26.082C295.84 26.082 306.965 28.1518 316.624 32.2914C326.312 36.4309 334.419 42.2235 340.944 49.6546C347.455 57.1 352.4 65.9254 355.778 76.1593C359.141 86.3645 360.837 97.4321 360.837 109.391C360.837 121.35 359.141 132.446 355.778 142.68C352.4 152.885 347.455 161.696 340.944 169.127C334.419 176.573 326.312 182.351 316.624 186.49C306.965 190.63 295.84 192.7 283.278 192.7C270.701 192.7 259.59 190.63 249.931 186.49C240.272 182.351 232.122 176.573 225.496 169.127C218.899 161.696 213.911 152.885 210.548 142.68C207.17 132.446 205.488 121.35 205.488 109.391ZM244.642 109.391C244.642 119.208 245.403 128.292 246.941 136.643C248.465 145.008 250.88 152.224 254.186 158.318C257.477 164.384 261.689 169.127 266.834 172.577C271.966 176.026 278.132 177.751 285.347 177.751C291.93 177.751 297.536 176.026 302.136 172.577C306.735 169.127 310.487 164.384 313.404 158.318C316.351 152.224 318.478 145.008 319.786 136.643C321.08 128.292 321.741 119.208 321.741 109.391C321.741 99.5881 321.008 90.504 319.556 82.1387C318.09 73.7445 315.776 66.529 312.6 60.4634C309.452 54.4122 305.312 49.6546 300.181 46.2049C295.035 42.7553 288.797 41.0305 281.438 41.0305C274.38 41.0305 268.473 42.7553 263.73 46.2049C258.972 49.6546 255.177 54.4122 252.346 60.4634C249.5 66.529 247.516 73.7445 246.366 82.1387C245.217 90.504 244.642 99.5881 244.642 109.391Z" fill="#424244"/>
<path d="M374.636 215.697C371.876 218.601 368.915 221.403 365.781 224.091C362.634 226.765 359.342 229.18 355.893 231.336C352.443 233.52 348.792 235.216 344.969 236.452C341.131 237.674 337.149 238.292 333.01 238.292C325.953 238.292 318.838 237.027 311.68 234.498C304.55 231.968 297.105 229.036 289.372 225.701C281.625 222.395 273.504 219.219 264.995 216.157C256.485 213.081 247.243 210.94 237.282 209.718L243.032 199.599C250.391 198.219 257.635 197.874 264.765 198.564C271.894 199.254 278.937 200.404 285.922 202.014C292.894 203.623 299.865 205.42 306.85 207.418C313.864 209.402 320.893 211.011 327.95 212.248C334.993 213.469 342.209 214.044 349.568 213.972C356.927 213.886 364.517 212.549 372.336 209.948L374.636 215.697ZM205.488 109.391C205.488 97.4321 207.17 86.3645 210.548 76.1593C213.911 65.9254 218.899 57.1 225.496 49.6546C232.122 42.2235 240.272 36.4309 249.931 32.2914C259.59 28.1518 270.701 26.082 283.278 26.082C295.84 26.082 306.965 28.1518 316.624 32.2914C326.312 36.4309 334.419 42.2235 340.944 49.6546C347.455 57.1 352.4 65.9254 355.778 76.1593C359.141 86.3645 360.837 97.4321 360.837 109.391C360.837 121.35 359.141 132.446 355.778 142.68C352.4 152.885 347.455 161.696 340.944 169.127C334.419 176.573 326.312 182.351 316.624 186.49C306.965 190.63 295.84 192.7 283.278 192.7C270.701 192.7 259.59 190.63 249.931 186.49C240.272 182.351 232.122 176.573 225.496 169.127C218.899 161.696 213.911 152.885 210.548 142.68C207.17 132.446 205.488 121.35 205.488 109.391ZM244.642 109.391C244.642 119.208 245.403 128.292 246.941 136.643C248.465 145.008 250.88 152.224 254.186 158.318C257.477 164.384 261.689 169.127 266.834 172.577C271.966 176.026 278.132 177.751 285.347 177.751C291.93 177.751 297.536 176.026 302.136 172.577C306.735 169.127 310.487 164.384 313.404 158.318C316.351 152.224 318.478 145.008 319.786 136.643C321.08 128.292 321.741 119.208 321.741 109.391C321.741 99.5881 321.008 90.504 319.556 82.1387C318.09 73.7445 315.776 66.529 312.6 60.4634C309.452 54.4122 305.312 49.6546 300.181 46.2049C295.035 42.7553 288.797 41.0305 281.438 41.0305C274.38 41.0305 268.473 42.7553 263.73 46.2049C258.972 49.6546 255.177 54.4122 252.346 60.4634C249.5 66.529 247.516 73.7445 246.366 82.1387C245.217 90.504 244.642 99.5881 244.642 109.391Z" fill="#424244"/>
<path d="M403.638 144.348C403.638 134.689 403.868 125.72 404.328 117.441C404.788 109.162 405.018 100.423 405.018 91.2236L389.84 89.3838V80.4148C392.283 79.4948 395.316 78.5749 398.924 77.655C402.517 76.7351 406.24 75.9302 410.078 75.2403C413.901 74.5216 417.624 73.8892 421.232 73.343C424.868 72.8112 427.915 72.3943 430.373 72.0781H438.192C438.192 83.62 437.962 94.9464 437.502 106.057C437.042 117.182 436.812 128.106 436.812 138.829C436.812 151.449 438.077 160.504 440.607 166.023C443.137 171.543 447.851 174.302 454.751 174.302C459.494 174.302 463.906 172.506 467.974 168.898C472.027 165.305 475.362 159.498 477.978 151.477V91.2236L463.03 89.3838V80.4148C465.329 79.4948 468.204 78.5749 471.654 77.655C475.103 76.7351 478.697 75.9302 482.463 75.2403C486.214 74.5216 489.937 73.8892 493.616 73.343C497.296 72.8112 500.53 72.3943 503.333 72.0781H511.152V173.612L526.331 175.452V183.501C524.175 184.421 521.501 185.341 518.281 186.261C515.062 187.181 511.684 188.072 508.162 188.906C504.627 189.754 501.119 190.429 497.641 190.976C494.191 191.507 491.087 191.924 488.327 192.241H480.508L478.898 164.873H477.978C477.202 168.093 475.822 171.356 473.839 174.647C471.841 177.953 469.268 180.943 466.134 183.616C462.987 186.304 459.264 188.489 454.981 190.171C450.683 191.852 445.925 192.7 440.722 192.7C434.886 192.7 429.698 191.967 425.141 190.516C420.613 189.064 416.747 186.491 413.527 182.812C410.308 179.132 407.85 174.187 406.168 167.978C404.472 161.769 403.638 153.892 403.638 144.348Z" fill="#424244"/>
<path d="M644.82 156.594C644.82 159.972 644.848 162.89 644.935 165.333C645.006 167.791 645.193 170.393 645.51 173.153L661.435 175.452V183.501C659.596 184.421 657.08 185.341 653.904 186.261C650.756 187.181 647.464 188.072 644.015 188.906C640.565 189.754 637.144 190.429 633.781 190.976C630.403 191.507 627.413 191.924 624.812 192.241H616.993C615.455 188.719 614.535 185.198 614.233 181.662C613.917 178.14 613.687 173.842 613.543 168.783H612.393C611.617 171.859 610.323 174.805 608.483 177.637C606.644 180.483 604.301 183.013 601.469 185.226C598.623 187.454 595.289 189.251 591.465 190.631C587.627 192.011 583.33 192.7 578.587 192.7C573.484 192.7 568.784 191.924 564.501 190.401C560.203 188.877 556.451 186.721 553.232 183.961C550.012 181.202 547.482 177.867 545.643 173.957C543.803 170.048 542.883 165.65 542.883 160.734C542.883 153.806 544.176 148.114 546.792 143.658C549.394 139.217 553.49 135.58 559.096 132.734C564.687 129.903 571.889 127.79 580.714 126.41C589.568 125.03 600.276 124.038 612.853 123.42C614.075 110.24 613.543 100.581 611.243 94.4433C608.943 88.3202 603.956 85.2442 596.295 85.2442C591.537 85.2442 587.168 86.0204 583.186 87.544L572.32 115.141H562.201C560.965 113.301 559.786 111.203 558.636 108.817C557.486 106.445 556.408 103.915 555.416 101.228C554.41 98.5541 553.577 95.8231 552.887 93.0634C552.197 90.3037 551.694 87.6302 551.392 85.0143C557.213 81.0328 564.731 77.885 573.93 75.5853C583.157 73.2567 592.917 72.0781 603.194 72.0781C611.933 72.0781 619.062 73.0555 624.582 75.0103C630.101 76.9364 634.428 79.538 637.575 82.8295C640.709 86.1354 642.894 90.0019 644.13 94.4433C645.351 98.8991 645.97 103.642 645.97 108.702C645.97 117.901 645.768 126.223 645.395 133.654C645.006 141.1 644.82 148.746 644.82 156.594ZM593.075 174.302C596.295 174.302 599.054 173.699 601.354 172.463C603.654 171.241 605.609 169.789 607.219 168.093C608.828 166.411 610.05 164.572 610.898 162.574C611.732 160.59 612.393 158.822 612.853 157.284V134.229C605.637 134.387 599.744 134.847 595.145 135.609C590.545 136.385 586.938 137.65 584.336 139.404C581.72 141.172 579.923 143.399 578.932 146.073C577.925 148.761 577.437 152.038 577.437 155.904C577.437 161.74 578.817 166.253 581.576 169.473C584.336 172.693 588.159 174.302 593.075 174.302Z" fill="#424244"/>
<path d="M816.549 189.941H755.548V180.972C757.532 179.908 759.486 178.945 761.412 178.097C763.324 177.263 765.581 176.372 768.197 175.452V121.35C768.197 111.691 766.817 104.145 764.057 98.6978C761.298 93.2647 756.382 90.5337 749.339 90.5337C743.503 90.5337 738.487 92.4166 734.275 96.1681C730.05 99.934 726.873 105.022 724.731 111.461V175.452C727.175 176.07 729.36 176.803 731.286 177.637C733.197 178.485 735.224 179.592 737.38 180.972V189.941H676.379V180.972C680.202 178.988 685.262 177.148 691.557 175.452V91.2236L676.379 89.3838V80.4148C678.362 79.4948 680.978 78.6181 684.198 77.77C687.418 76.9364 690.896 76.1314 694.662 75.3553C698.413 74.5504 702.251 73.8892 706.161 73.343C710.099 72.8112 713.692 72.3943 716.912 72.0781H724.731V95.8231H724.961C728.181 89.3838 733.01 83.8356 739.45 79.1499C745.889 74.4354 753.708 72.0781 762.907 72.0781C768.887 72.0781 774.248 72.8255 779.006 74.3204C783.792 75.7865 787.831 78.345 791.137 82.0246C794.428 85.7042 796.958 90.6487 798.726 96.858C800.48 103.067 801.371 110.93 801.371 120.431V175.452C807.494 176.53 812.553 178.37 816.549 180.972V189.941Z" fill="#424244"/>
<path d="M821.836 80.4167C827.657 76.7083 833.795 74.078 840.234 72.54V53.9119C841.154 52.992 842.721 52.1153 844.949 51.2672C847.162 50.4336 849.548 49.6574 852.078 48.9675C854.608 48.2775 857.094 47.6307 859.552 47.0127C862.039 46.409 864.051 45.949 865.589 45.6328H873.408V74.8398H903.765V89.3857H873.408V148.949C873.408 158.493 874.587 165.105 876.973 168.785C879.344 172.465 883.297 174.304 888.816 174.304C891.576 174.304 894.681 174.117 898.13 173.729C901.58 173.356 904.757 172.623 907.674 171.545L909.284 179.134C907.904 180.514 905.863 181.98 903.19 183.503C900.502 185.041 897.441 186.493 893.991 187.873C890.541 189.253 886.775 190.403 882.722 191.323C878.654 192.242 874.4 192.702 869.958 192.702C859.954 192.702 852.495 190.086 847.593 184.883C842.678 179.68 840.234 171.243 840.234 159.586V89.3857H821.836V80.4167Z" fill="#424244"/>
<path d="M981.563 164.873C981.563 160.892 980.14 157.442 977.308 154.524C974.462 151.578 970.941 148.876 966.729 146.418C962.503 143.974 957.89 141.516 952.873 139.059C947.886 136.615 943.286 133.74 939.075 130.435C934.849 127.143 931.327 123.277 928.496 118.821C925.65 114.379 924.241 108.932 924.241 102.492C924.241 97.8929 925.305 93.7246 927.461 89.9588C929.602 86.2073 932.52 83.0307 936.2 80.4148C939.88 77.8131 944.278 75.7865 949.424 74.3204C954.598 72.8255 960.175 72.0781 966.154 72.0781C974.433 72.0781 982.138 72.7537 989.267 74.0904C996.396 75.3984 1002.63 77.1951 1008.01 79.4948C1007.39 84.4106 1006.17 89.6569 1004.33 95.2482C1002.49 100.854 1000.72 105.942 999.041 110.542H991.222L981.563 87.0841C979.723 86.3223 977.797 85.8192 975.813 85.5892C973.815 85.3592 971.587 85.2442 969.144 85.2442C964.544 85.2442 961.052 86.5954 958.68 89.2688C956.294 91.9567 955.115 94.9895 955.115 98.3529C955.115 102.191 956.524 105.525 959.37 108.357C962.202 111.203 965.723 113.847 969.949 116.291C974.16 118.749 978.76 121.207 983.747 123.65C988.721 126.108 993.32 128.911 997.546 132.044C1001.76 135.192 1005.28 138.915 1008.12 143.198C1010.96 147.496 1012.38 152.656 1012.38 158.664C1012.38 169.243 1008.08 177.565 999.501 183.616C990.905 189.682 979.407 192.7 965.004 192.7C957.645 192.7 950.027 191.924 942.179 190.401C934.36 188.877 927.605 186.721 921.941 183.961C922.243 178.442 923.551 172.851 925.851 167.173C928.151 161.51 930.594 156.451 933.21 151.995H941.029L952.298 177.062C954.023 178.298 955.92 179.017 957.99 179.247C960.06 179.477 962.015 179.592 963.855 179.592C968.296 179.592 972.364 178.298 976.043 175.682C979.723 173.081 981.563 169.473 981.563 164.873Z" fill="#424244"/>
<path d="M57.9539 203.748C57.9539 216.865 52.3171 228.02 41.0434 237.211C29.7696 246.403 16.0885 250.999 0 250.999V249.515C5.40199 249.515 9.98193 247.983 13.7398 244.919C17.4977 241.855 19.3767 238.121 19.3767 233.717V106.344L57.9539 85.5508V203.748Z" fill="#424244"/>
<mask id="mask0_3340_12940" style="mask-type:alpha" maskUnits="userSpaceOnUse" x="19" y="0" width="39" height="94">
<path d="M19.3125 0H57.9485V93.8302H19.3125V0Z" fill="black"/>
</mask>
<g mask="url(#mask0_3340_12940)">
<path d="M19.3125 -1.38086V92.4493L57.9485 71.7515V-1.38086H38.6305H19.3125Z" fill="url(#paint0_linear_3340_12940)"/>
</g>
<defs>
<linearGradient id="paint0_linear_3340_12940" x1="38.6628" y1="-0.0556011" x2="38.6628" y2="124.957" gradientUnits="userSpaceOnUse">
<stop stop-color="#0CBACC"/>
<stop offset="0.00390625" stop-color="#0CB9CC"/>
<stop offset="0.0078125" stop-color="#0DB9CC"/>
<stop offset="0.0117188" stop-color="#0DB8CC"/>
<stop offset="0.015625" stop-color="#0EB8CC"/>
<stop offset="0.0195312" stop-color="#0EB7CC"/>
<stop offset="0.0234375" stop-color="#0FB7CD"/>
<stop offset="0.0273438" stop-color="#0FB6CD"/>
<stop offset="0.03125" stop-color="#0FB5CD"/>
<stop offset="0.0351562" stop-color="#10B5CD"/>
<stop offset="0.0390625" stop-color="#10B4CD"/>
<stop offset="0.0429687" stop-color="#11B4CD"/>
<stop offset="0.046875" stop-color="#11B3CD"/>
<stop offset="0.0507812" stop-color="#12B3CD"/>
<stop offset="0.0546875" stop-color="#12B2CD"/>
<stop offset="0.0585938" stop-color="#12B2CD"/>
<stop offset="0.0625" stop-color="#13B1CD"/>
<stop offset="0.0664063" stop-color="#13B0CE"/>
<stop offset="0.0703125" stop-color="#14B0CE"/>
<stop offset="0.0742188" stop-color="#14AFCE"/>
<stop offset="0.078125" stop-color="#15AFCE"/>
<stop offset="0.0820312" stop-color="#15AECE"/>
<stop offset="0.0859375" stop-color="#15AECE"/>
<stop offset="0.0898438" stop-color="#16ADCE"/>
<stop offset="0.09375" stop-color="#16ADCE"/>
<stop offset="0.0976562" stop-color="#17ACCE"/>
<stop offset="0.101562" stop-color="#17ABCE"/>
<stop offset="0.105469" stop-color="#18ABCF"/>
<stop offset="0.109375" stop-color="#18AACF"/>
<stop offset="0.113281" stop-color="#18AACF"/>
<stop offset="0.117188" stop-color="#19A9CF"/>
<stop offset="0.121094" stop-color="#19A9CF"/>
<stop offset="0.125" stop-color="#1AA8CF"/>
<stop offset="0.128906" stop-color="#1AA8CF"/>
<stop offset="0.132812" stop-color="#1BA7CF"/>
<stop offset="0.136719" stop-color="#1BA7CF"/>
<stop offset="0.140625" stop-color="#1BA6CF"/>
<stop offset="0.144531" stop-color="#1CA5CF"/>
<stop offset="0.148438" stop-color="#1CA5D0"/>
<stop offset="0.152344" stop-color="#1DA4D0"/>
<stop offset="0.15625" stop-color="#1DA4D0"/>
<stop offset="0.160156" stop-color="#1EA3D0"/>
<stop offset="0.164062" stop-color="#1EA3D0"/>
<stop offset="0.167969" stop-color="#1EA2D0"/>
<stop offset="0.171875" stop-color="#1FA2D0"/>
<stop offset="0.175781" stop-color="#1FA1D0"/>
<stop offset="0.179688" stop-color="#20A0D0"/>
<stop offset="0.183594" stop-color="#20A0D0"/>
<stop offset="0.1875" stop-color="#219FD0"/>
<stop offset="0.191406" stop-color="#219FD1"/>
<stop offset="0.195312" stop-color="#219ED1"/>
<stop offset="0.199219" stop-color="#229ED1"/>
<stop offset="0.203125" stop-color="#229DD1"/>
<stop offset="0.207031" stop-color="#239DD1"/>
<stop offset="0.210938" stop-color="#239CD1"/>
<stop offset="0.214844" stop-color="#249BD1"/>
<stop offset="0.21875" stop-color="#249BD1"/>
<stop offset="0.222656" stop-color="#249AD1"/>
<stop offset="0.226562" stop-color="#259AD1"/>
<stop offset="0.230469" stop-color="#2599D2"/>
<stop offset="0.234375" stop-color="#2699D2"/>
<stop offset="0.238281" stop-color="#2698D2"/>
<stop offset="0.242188" stop-color="#2798D2"/>
<stop offset="0.246094" stop-color="#2797D2"/>
<stop offset="0.25" stop-color="#2796D2"/>
<stop offset="0.253906" stop-color="#2896D2"/>
<stop offset="0.257813" stop-color="#2895D2"/>
<stop offset="0.261719" stop-color="#2995D2"/>
<stop offset="0.265625" stop-color="#2994D2"/>
<stop offset="0.269531" stop-color="#2A94D2"/>
<stop offset="0.273438" stop-color="#2A93D3"/>
<stop offset="0.277344" stop-color="#2A93D3"/>
<stop offset="0.28125" stop-color="#2B92D3"/>
<stop offset="0.285156" stop-color="#2B91D3"/>
<stop offset="0.289063" stop-color="#2C91D3"/>
<stop offset="0.292969" stop-color="#2C90D3"/>
<stop offset="0.296875" stop-color="#2D90D3"/>
<stop offset="0.300781" stop-color="#2D8FD3"/>
<stop offset="0.304688" stop-color="#2D8FD3"/>
<stop offset="0.308594" stop-color="#2E8ED3"/>
<stop offset="0.3125" stop-color="#2E8ED3"/>
<stop offset="0.316406" stop-color="#2F8DD4"/>
<stop offset="0.320312" stop-color="#2F8CD4"/>
<stop offset="0.324219" stop-color="#308CD4"/>
<stop offset="0.328125" stop-color="#308BD4"/>
<stop offset="0.332031" stop-color="#308BD4"/>
<stop offset="0.335938" stop-color="#318AD4"/>
<stop offset="0.339844" stop-color="#318AD4"/>
<stop offset="0.34375" stop-color="#3289D4"/>
<stop offset="0.347656" stop-color="#3289D4"/>
<stop offset="0.351562" stop-color="#3388D4"/>
<stop offset="0.355469" stop-color="#3387D5"/>
<stop offset="0.359375" stop-color="#3387D5"/>
<stop offset="0.363281" stop-color="#3486D5"/>
<stop offset="0.367188" stop-color="#3486D5"/>
<stop offset="0.371094" stop-color="#3585D5"/>
<stop offset="0.375" stop-color="#3585D5"/>
<stop offset="0.378906" stop-color="#3684D5"/>
<stop offset="0.382812" stop-color="#3684D5"/>
<stop offset="0.386719" stop-color="#3683D5"/>
<stop offset="0.390625" stop-color="#3783D5"/>
<stop offset="0.394531" stop-color="#3782D5"/>
<stop offset="0.398438" stop-color="#3881D6"/>
<stop offset="0.402344" stop-color="#3881D6"/>
<stop offset="0.40625" stop-color="#3980D6"/>
<stop offset="0.410156" stop-color="#3980D6"/>
<stop offset="0.414062" stop-color="#397FD6"/>
<stop offset="0.417969" stop-color="#3A7FD6"/>
<stop offset="0.421875" stop-color="#3A7ED6"/>
<stop offset="0.425781" stop-color="#3B7ED6"/>
<stop offset="0.429688" stop-color="#3B7DD6"/>
<stop offset="0.433594" stop-color="#3C7CD6"/>
<stop offset="0.4375" stop-color="#3C7CD6"/>
<stop offset="0.441406" stop-color="#3C7BD7"/>
<stop offset="0.445313" stop-color="#3D7BD7"/>
<stop offset="0.449219" stop-color="#3D7AD7"/>
<stop offset="0.453125" stop-color="#3E7AD7"/>
<stop offset="0.457031" stop-color="#3E79D7"/>
<stop offset="0.460938" stop-color="#3F79D7"/>
<stop offset="0.464844" stop-color="#3F78D7"/>
<stop offset="0.46875" stop-color="#4077D7"/>
<stop offset="0.472656" stop-color="#4077D7"/>
<stop offset="0.476563" stop-color="#4076D7"/>
<stop offset="0.480469" stop-color="#4176D8"/>
<stop offset="0.484375" stop-color="#4175D8"/>
<stop offset="0.488281" stop-color="#4275D8"/>
<stop offset="0.492188" stop-color="#4274D8"/>
<stop offset="0.496094" stop-color="#4374D8"/>
<stop offset="0.5" stop-color="#4373D8"/>
<stop offset="0.503906" stop-color="#4372D8"/>
<stop offset="0.507812" stop-color="#4472D8"/>
<stop offset="0.511719" stop-color="#4471D8"/>
<stop offset="0.515625" stop-color="#4571D8"/>
<stop offset="0.519531" stop-color="#4570D8"/>
<stop offset="0.523438" stop-color="#4670D9"/>
<stop offset="0.527344" stop-color="#466FD9"/>
<stop offset="0.53125" stop-color="#466FD9"/>
<stop offset="0.535156" stop-color="#476ED9"/>
<stop offset="0.539062" stop-color="#476DD9"/>
<stop offset="0.542969" stop-color="#486DD9"/>
<stop offset="0.546875" stop-color="#486CD9"/>
<stop offset="0.550781" stop-color="#496CD9"/>
<stop offset="0.554688" stop-color="#496BD9"/>
<stop offset="0.558594" stop-color="#496BD9"/>
<stop offset="0.5625" stop-color="#4A6AD9"/>
<stop offset="0.566406" stop-color="#4A6ADA"/>
<stop offset="0.570312" stop-color="#4B69DA"/>
<stop offset="0.574219" stop-color="#4B68DA"/>
<stop offset="0.578125" stop-color="#4C68DA"/>
<stop offset="0.582031" stop-color="#4C67DA"/>
<stop offset="0.585938" stop-color="#4C67DA"/>
<stop offset="0.589844" stop-color="#4D66DA"/>
<stop offset="0.59375" stop-color="#4D66DA"/>
<stop offset="0.597656" stop-color="#4E65DA"/>
<stop offset="0.601562" stop-color="#4E65DA"/>
<stop offset="0.605469" stop-color="#4F64DB"/>
<stop offset="0.609375" stop-color="#4F63DB"/>
<stop offset="0.613281" stop-color="#4F63DB"/>
<stop offset="0.617188" stop-color="#5062DB"/>
<stop offset="0.621094" stop-color="#5062DB"/>
<stop offset="0.625" stop-color="#5161DB"/>
<stop offset="0.628906" stop-color="#5161DB"/>
<stop offset="0.632812" stop-color="#5260DB"/>
<stop offset="0.636719" stop-color="#5260DB"/>
<stop offset="0.640625" stop-color="#525FDB"/>
<stop offset="0.644531" stop-color="#535FDB"/>
<stop offset="0.648437" stop-color="#535EDC"/>
<stop offset="0.652344" stop-color="#545DDC"/>
<stop offset="0.65625" stop-color="#545DDC"/>
<stop offset="0.660156" stop-color="#555CDC"/>
<stop offset="0.664062" stop-color="#555CDC"/>
<stop offset="0.667969" stop-color="#555BDC"/>
<stop offset="0.671875" stop-color="#565BDC"/>
<stop offset="0.675781" stop-color="#565ADC"/>
<stop offset="0.679687" stop-color="#575ADC"/>
<stop offset="0.683594" stop-color="#5759DC"/>
<stop offset="0.6875" stop-color="#5858DC"/>
<stop offset="0.691406" stop-color="#5858DD"/>
<stop offset="0.695312" stop-color="#5857DD"/>
<stop offset="0.699219" stop-color="#5957DD"/>
<stop offset="0.703125" stop-color="#5956DD"/>
<stop offset="0.707031" stop-color="#5A56DD"/>
<stop offset="0.710938" stop-color="#5A55DD"/>
<stop offset="0.714844" stop-color="#5B55DD"/>
<stop offset="0.71875" stop-color="#5B54DD"/>
<stop offset="0.722656" stop-color="#5B53DD"/>
<stop offset="0.726562" stop-color="#5C53DD"/>
<stop offset="0.730469" stop-color="#5C52DE"/>
<stop offset="0.734375" stop-color="#5D52DE"/>
<stop offset="0.738281" stop-color="#5D51DE"/>
<stop offset="0.742188" stop-color="#5E51DE"/>
<stop offset="0.746094" stop-color="#5E50DE"/>
<stop offset="0.75" stop-color="#5E50DE"/>
<stop offset="0.753906" stop-color="#5F4FDE"/>
<stop offset="0.757812" stop-color="#5F4EDE"/>
<stop offset="0.761719" stop-color="#604EDE"/>
<stop offset="0.765625" stop-color="#604DDE"/>
<stop offset="0.769531" stop-color="#614DDE"/>
<stop offset="0.773438" stop-color="#614CDF"/>
<stop offset="0.777344" stop-color="#614CDF"/>
<stop offset="0.78125" stop-color="#624BDF"/>
<stop offset="0.785156" stop-color="#624BDF"/>
<stop offset="0.789062" stop-color="#634ADF"/>
<stop offset="0.792969" stop-color="#6349DF"/>
<stop offset="0.796875" stop-color="#6449DF"/>
<stop offset="0.800781" stop-color="#6448DF"/>
<stop offset="0.804687" stop-color="#6448DF"/>
<stop offset="0.808594" stop-color="#6547DF"/>
<stop offset="0.8125" stop-color="#6547DF"/>
<stop offset="0.816406" stop-color="#6646E0"/>
<stop offset="0.820312" stop-color="#6646E0"/>
<stop offset="0.824219" stop-color="#6745E0"/>
<stop offset="0.828125" stop-color="#6744E0"/>
<stop offset="0.832031" stop-color="#6744E0"/>
<stop offset="0.835938" stop-color="#6843E0"/>
<stop offset="0.839844" stop-color="#6843E0"/>
<stop offset="0.84375" stop-color="#6942E0"/>
<stop offset="0.847656" stop-color="#6942E0"/>
<stop offset="0.851562" stop-color="#6A41E0"/>
<stop offset="0.855469" stop-color="#6A41E1"/>
<stop offset="0.859375" stop-color="#6A40E1"/>
<stop offset="0.863281" stop-color="#6B3FE1"/>
<stop offset="0.867188" stop-color="#6B3FE1"/>
<stop offset="0.871094" stop-color="#6C3EE1"/>
<stop offset="0.875" stop-color="#6C3EE1"/>
<stop offset="0.878906" stop-color="#6D3DE1"/>
<stop offset="0.882812" stop-color="#6D3DE1"/>
<stop offset="0.886719" stop-color="#6D3CE1"/>
<stop offset="0.890625" stop-color="#6E3CE1"/>
<stop offset="0.894531" stop-color="#6E3BE1"/>
<stop offset="0.898438" stop-color="#6F3BE2"/>
<stop offset="0.902344" stop-color="#6F3AE2"/>
<stop offset="0.90625" stop-color="#7039E2"/>
<stop offset="0.910156" stop-color="#7039E2"/>
<stop offset="0.914062" stop-color="#7038E2"/>
<stop offset="0.917969" stop-color="#7138E2"/>
<stop offset="0.921875" stop-color="#7137E2"/>
<stop offset="0.925781" stop-color="#7237E2"/>
<stop offset="0.929687" stop-color="#7236E2"/>
<stop offset="0.933594" stop-color="#7336E2"/>
<stop offset="0.9375" stop-color="#7335E2"/>
<stop offset="0.941406" stop-color="#7334E3"/>
<stop offset="0.945312" stop-color="#7434E3"/>
<stop offset="0.949219" stop-color="#7433E3"/>
<stop offset="0.953125" stop-color="#7533E3"/>
<stop offset="0.957031" stop-color="#7532E3"/>
<stop offset="0.960938" stop-color="#7632E3"/>
<stop offset="0.964844" stop-color="#7631E3"/>
<stop offset="0.96875" stop-color="#7631E3"/>
<stop offset="0.972656" stop-color="#7730E3"/>
<stop offset="0.976562" stop-color="#772FE3"/>
<stop offset="0.980469" stop-color="#782FE3"/>
<stop offset="0.984375" stop-color="#782EE4"/>
<stop offset="0.988281" stop-color="#792EE4"/>
<stop offset="0.992188" stop-color="#792DE4"/>
<stop offset="0.996094" stop-color="#792DE4"/>
<stop offset="1" stop-color="#7A2CE4"/>
</linearGradient>
</defs>
</svg>
