<svg width="843" height="228" viewBox="0 0 843 228" fill="none" xmlns="http://www.w3.org/2000/svg">
<path d="M148.377 92.3721H159.288V220.747C159.288 223.76 156.845 226.202 153.832 226.202C150.82 226.202 148.377 223.76 148.377 220.747V92.3721Z" fill="#22C27D" style="fill:#22C27D;fill:color(display-p3 0.1333 0.7608 0.4902);fill-opacity:1;"/>
<path d="M153.9 94.2318C75.1067 94.2318 8.90397 69.5124 0 0C81.2067 -2.22586e-05 153.9 18.6425 153.9 86.7352C153.9 18.6425 220.044 7.96733e-05 307.8 0C298.203 74.9179 226.765 94.2318 153.9 94.2318Z" fill="#22C27D" style="fill:#22C27D;fill:color(display-p3 0.1333 0.7608 0.4902);fill-opacity:1;"/>
<path d="M832.5 97C827.38 101.036 815.927 106.691 801.4 107.658C801.563 100.104 805.833 92.6355 812.691 85.9108C819.548 79.186 831.481 72.9525 842.488 72.4693C843.5 83 837.62 92.9638 832.5 97ZM814.725 205.85C816.538 205.85 817.445 207.036 817.445 209.407C817.445 212.546 816.015 215.79 813.155 219.138C808.97 224.021 803.355 226.462 796.31 226.462C788.219 226.462 782.673 223.183 779.674 216.627C778.558 214.325 778 211.535 778 208.256C778 204.978 778.558 201.351 779.674 197.375C780.86 193.329 782.29 189.109 783.964 184.715C785.708 180.251 787.591 175.752 789.614 171.218L795.159 158.034C799.205 148.199 801.228 141.712 801.228 138.573C801.228 135.434 800.879 133.377 800.181 132.4C799.554 131.354 798.856 130.552 798.089 129.994L795.996 128.529C795.299 128.041 794.95 127.204 794.95 126.018C794.95 124.762 795.403 123.576 796.31 122.46C797.287 121.344 798.542 120.368 800.077 119.531C803.216 117.927 806.878 117.124 811.063 117.124C821.316 117.124 826.443 119.81 826.443 125.181C826.443 131.459 824.804 138.643 821.526 146.734C818.247 154.756 815.457 161.243 813.155 166.195L806.878 180.634C802.274 191.237 799.972 198.875 799.972 203.548C799.972 206.617 801.507 208.152 804.576 208.152C807.575 208.152 809.842 207.768 811.377 207.001C812.911 206.234 814.027 205.85 814.725 205.85Z" fill="#22C27D" style="fill:#22C27D;fill:color(display-p3 0.1334 0.7627 0.4900);fill-opacity:1;"/>
<path d="M832.5 97C827.38 101.036 815.927 106.691 801.4 107.658C801.563 100.104 805.833 92.6355 812.691 85.9108C819.548 79.186 831.481 72.9525 842.488 72.4693C843.5 83 837.62 92.9638 832.5 97ZM814.725 205.85C816.538 205.85 817.445 207.036 817.445 209.407C817.445 212.546 816.015 215.79 813.155 219.138C808.97 224.021 803.355 226.462 796.31 226.462C788.219 226.462 782.673 223.183 779.674 216.627C778.558 214.325 778 211.535 778 208.256C778 204.978 778.558 201.351 779.674 197.375C780.86 193.329 782.29 189.109 783.964 184.715C785.708 180.251 787.591 175.752 789.614 171.218L795.159 158.034C799.205 148.199 801.228 141.712 801.228 138.573C801.228 135.434 800.879 133.377 800.181 132.4C799.554 131.354 798.856 130.552 798.089 129.994L795.996 128.529C795.299 128.041 794.95 127.204 794.95 126.018C794.95 124.762 795.403 123.576 796.31 122.46C797.287 121.344 798.542 120.368 800.077 119.531C803.216 117.927 806.878 117.124 811.063 117.124C821.316 117.124 826.443 119.81 826.443 125.181C826.443 131.459 824.804 138.643 821.526 146.734C818.247 154.756 815.457 161.243 813.155 166.195L806.878 180.634C802.274 191.237 799.972 198.875 799.972 203.548C799.972 206.617 801.507 208.152 804.576 208.152C807.575 208.152 809.842 207.768 811.377 207.001C812.911 206.234 814.027 205.85 814.725 205.85Z" fill="#22C27D" style="fill:#22C27D;fill:color(display-p3 0.1334 0.7627 0.4900);fill-opacity:1;"/>
<path d="M746.561 227.092C730.727 227.092 718.102 212.06 708.685 181.997C704.988 188.832 701.919 195.04 699.478 200.621L693.2 214.85C691.387 218.756 689.678 221.791 688.073 223.953C686.539 226.115 684.795 227.196 682.842 227.196C680.889 227.196 679.11 226.848 677.506 226.15C675.902 225.522 674.507 224.685 673.321 223.639C670.879 221.407 669.659 218.966 669.659 216.315C669.659 215.269 670.391 213.211 671.856 210.142L676.041 201.667C689.085 174.812 700.908 140.773 711.51 99.5489C715.416 84.3428 718.241 70.6712 719.985 58.5343C720.753 52.675 723.612 49.7454 728.565 49.7454C731.494 49.7454 733.936 50.5127 735.889 52.0473C739.656 55.0466 741.469 58.2901 741.33 61.7778C741.19 65.1956 740.702 69.0669 739.865 73.3916C739.097 77.7163 738.051 82.4594 736.726 87.6212C735.401 92.7131 733.901 98.0492 732.227 103.629C727.693 118.208 724.31 128.601 722.078 134.809L712.243 161.908C710.987 165.116 710.011 167.453 709.313 168.918C725.496 162.501 737.633 155.246 745.724 147.155C750.607 142.272 753.048 137.704 753.048 133.449C753.048 131.286 752.316 129.717 750.851 128.74C749.456 127.764 748.479 127.031 747.921 126.543C747.433 125.985 747.398 125.043 747.817 123.718C748.305 122.323 749.63 120.998 751.793 119.742C753.955 118.487 756.571 117.859 759.64 117.859C762.709 117.859 765.255 118.138 767.278 118.696C769.37 119.254 771.184 120.126 772.718 121.312C776.136 123.753 777.845 127.206 777.845 131.67C777.845 136.134 776.903 140.25 775.02 144.016C773.137 147.713 770.207 151.305 766.231 154.793C758.349 161.489 745.724 167.976 728.356 174.254C730.518 183.531 734.494 191.692 740.283 198.737C745.794 205.434 750.851 208.782 755.455 208.782C757.896 208.782 759.988 208.363 761.732 207.526L765.499 205.643C766.266 205.224 766.999 205.015 767.696 205.015C769.44 205.015 770.312 206.061 770.312 208.154C770.312 209.967 769.998 211.572 769.37 212.967C768.742 214.292 767.836 215.722 766.65 217.257C765.534 218.791 764.069 220.291 762.255 221.756C757.721 225.313 752.49 227.092 746.561 227.092Z" fill="#22C27D" style="fill:#22C27D;fill:color(display-p3 0.1334 0.7627 0.4900);fill-opacity:1;"/>
<path d="M661.748 205.047C663.352 205.047 664.154 205.849 664.154 207.454C664.154 213.522 661.155 218.614 655.156 222.73C651.11 225.38 646.367 226.705 640.926 226.705C636.462 226.705 633.044 225.659 630.673 223.567C626.418 219.8 624.29 215.196 624.29 209.756C624.29 202.85 627.185 192.283 632.975 178.053C622.233 192.562 614.699 202.222 610.375 207.035C606.05 211.778 602.283 215.475 599.075 218.126C592.1 223.846 585.787 226.705 580.137 226.705C571.488 226.705 565.733 222.974 562.873 215.51C562.036 213.208 561.618 210.593 561.618 207.663C561.618 204.664 562.106 201.35 563.082 197.723C564.129 194.026 565.454 190.19 567.058 186.214C568.663 182.238 570.407 178.158 572.29 173.972L577.94 161.417C585.194 145.304 587.88 135.748 585.996 132.749C585.159 131.423 583.59 130.098 581.288 128.773C580.451 128.284 580.032 127.447 580.032 126.262C580.032 125.006 580.521 123.82 581.497 122.704C582.543 121.588 583.869 120.612 585.473 119.775C588.891 118.17 592.309 117.368 595.727 117.368C599.145 117.368 601.726 117.752 603.469 118.519C605.283 119.217 606.748 120.123 607.864 121.239C610.166 123.541 611.316 126.087 611.316 128.877C611.316 131.667 610.863 134.806 609.956 138.294C609.05 141.712 607.864 145.444 606.399 149.489C604.934 153.535 603.33 157.72 601.586 162.045C596.773 173.345 593.53 180.808 591.856 184.435L587.984 192.492C585.822 197.305 584.741 200.688 584.741 202.641C584.741 204.594 585.055 205.989 585.682 206.826C586.31 207.593 587.426 207.977 589.03 207.977C590.705 207.977 592.623 207.21 594.785 205.675C596.947 204.14 599.319 202.083 601.9 199.502C604.481 196.921 607.166 193.957 609.956 190.608C612.746 187.191 615.467 183.668 618.117 180.041C623.349 172.926 627.185 167.206 629.627 162.882C644.414 136.724 652.296 123.053 653.273 121.867C655.505 118.868 657.772 117.368 660.074 117.368C662.445 117.368 664.503 117.647 666.247 118.205C667.991 118.693 669.49 119.426 670.746 120.402C673.675 122.565 674.617 124.727 673.571 126.889C656.551 162.393 647.379 184.714 646.053 193.852C645.705 196.991 645.53 199.153 645.53 200.339C645.53 205.64 647.135 208.291 650.343 208.291C653.343 208.291 655.819 207.768 657.772 206.721C659.725 205.605 661.05 205.047 661.748 205.047Z" fill="#22C27D" style="fill:#22C27D;fill:color(display-p3 0.1334 0.7627 0.4900);fill-opacity:1;"/>
<path d="M466.791 195.658C466.791 191.612 467.07 187.741 467.628 184.044C468.255 180.347 469.023 176.616 469.929 172.849C470.906 169.082 471.987 165.316 473.173 161.549L484.891 125.766C494.168 96.7488 499.993 74.0791 502.364 57.757C503.132 51.8978 505.992 48.9681 510.944 48.9681C513.874 48.9681 516.35 49.7354 518.373 51.27C522.07 54.2693 523.848 57.478 523.709 60.8959C523.639 64.244 523.151 68.0106 522.244 72.1958C521.407 76.3112 520.291 80.8103 518.896 85.6929C517.57 90.5756 516.036 95.7025 514.292 101.073C509.619 114.884 506.131 124.859 503.829 130.997L497.865 146.587C503.934 137.17 508.886 130.718 512.723 127.231C520.395 120.465 528.382 117.082 536.683 117.082C548.889 117.082 557.016 123.464 561.061 136.229C562.387 140.623 563.049 146.099 563.049 152.656C563.049 159.212 562.073 165.734 560.12 172.221C558.236 178.638 555.655 184.637 552.377 190.217C549.099 195.728 545.262 200.715 540.868 205.179C536.543 209.644 531.974 213.445 527.161 216.584C516.978 223.141 507.108 226.419 497.551 226.419C487.926 226.419 480.357 223.489 474.847 217.63C469.476 211.771 466.791 204.447 466.791 195.658ZM496.087 212.817C502.643 212.817 509.305 209.888 516.071 204.028C526.394 195.1 533.335 182.335 536.892 165.734C538.078 160.293 538.671 154.644 538.671 148.784C538.671 142.855 538.008 138.705 536.683 136.333C535.357 133.962 533.3 132.776 530.51 132.776C527.789 132.776 524.929 133.892 521.93 136.124C518.931 138.356 515.792 141.321 512.513 145.018C509.235 148.645 505.992 152.865 502.783 157.678C499.574 162.421 496.68 167.339 494.099 172.43C488.449 183.661 485.624 193.217 485.624 201.099C485.624 208.911 489.111 212.817 496.087 212.817Z" fill="#22C27D" style="fill:#22C27D;fill:color(display-p3 0.1334 0.7627 0.4900);fill-opacity:1;"/>
<path d="M374.33 189.039C374.609 182.971 375.621 177.181 377.365 171.671C379.109 166.09 381.445 160.719 384.375 155.558C387.304 150.326 390.722 145.409 394.628 140.805C398.604 136.132 402.894 132.051 407.498 128.563C417.473 121.1 427.552 117.368 437.736 117.368C449.663 117.368 457.615 122.286 461.591 132.121C462.986 135.469 463.649 139.445 463.579 144.049C463.509 148.582 462.637 152.802 460.963 156.709C459.289 160.545 456.953 164.068 453.953 167.276C451.024 170.415 447.501 173.24 443.386 175.751C439.34 178.262 434.911 180.39 430.098 182.133C420.193 185.621 409.59 187.435 398.291 187.574C398.011 188.551 397.837 190.016 397.767 191.969C397.698 193.922 397.907 196.119 398.395 198.56C398.883 200.932 399.72 203.059 400.906 204.943C403.417 209.128 407.044 211.22 411.788 211.22C419.879 211.22 427.761 208.849 435.434 204.106C438.154 202.501 440.351 200.862 442.025 199.188C443.769 197.444 445.269 196.572 446.525 196.572C447.78 196.572 448.861 197.34 449.768 198.874C450.745 200.339 451.233 202.013 451.233 203.896C451.233 207.593 450.187 210.802 448.094 213.522C439.305 222.311 426.226 226.705 408.858 226.705C398.604 226.705 390.374 223.636 384.166 217.498C377.19 210.523 373.912 201.036 374.33 189.039ZM435.434 131.284C428.11 131.284 421.065 136.306 414.299 146.35C408.579 155 403.975 165.253 400.488 177.111C412.136 175.926 422.251 171.322 430.83 163.3C438.712 155.767 442.653 148.548 442.653 141.642C442.653 134.737 440.247 131.284 435.434 131.284Z" fill="#22C27D" style="fill:#22C27D;fill:color(display-p3 0.1334 0.7627 0.4900);fill-opacity:1;"/>
<path d="M288.942 136.893C284.896 136.893 277.502 142.752 266.761 154.47C258.739 163.608 252.915 170.479 249.287 175.082L239.871 187.01C235.825 194.683 232.651 201.065 230.35 206.157L224.7 218.294C223.235 221.294 221.944 223.421 220.828 224.677C219.782 225.862 218.317 226.455 216.434 226.455C214.62 226.455 212.842 226.106 211.098 225.409C209.424 224.781 207.959 223.944 206.703 222.898C204.053 220.666 202.728 218.224 202.728 215.574C202.728 214.528 203.495 212.47 205.029 209.401L209.005 200.926C210.261 198.415 211.726 195.206 213.4 191.3L219.259 176.966C227.49 156.389 231.605 143.101 231.605 137.102C231.605 133.893 230.559 131.522 228.466 129.987L226.374 128.522C225.676 128.034 225.327 127.197 225.327 126.011C225.327 124.756 225.781 123.57 226.688 122.454C227.664 121.338 228.92 120.361 230.454 119.524C233.593 117.92 236.732 117.118 239.871 117.118C243.079 117.118 245.591 117.467 247.404 118.164C249.218 118.862 250.787 119.803 252.112 120.989C254.763 123.43 256.088 125.976 256.088 128.627C256.088 131.278 255.74 133.963 255.042 136.683C254.345 139.334 253.473 142.054 252.426 144.845C251.38 147.565 250.264 150.216 249.078 152.796C246.288 158.795 244.544 162.492 243.847 163.887C243.219 165.212 243.045 165.701 243.324 165.352C256.088 148.82 263.761 139.055 266.342 136.056C271.713 129.848 275.898 125.593 278.898 123.291C284.408 119.176 289.605 117.118 294.487 117.118C299.44 117.118 303.381 118.652 306.31 121.722C309.24 124.791 310.705 128.836 310.705 133.859C310.705 138.253 309.589 143.415 307.357 149.344C305.125 155.273 303.625 159.423 302.858 161.794L318.238 141.496L326.818 131.243C331.979 125.453 336.513 121.652 340.419 119.838C344.326 118.025 347.499 117.118 349.941 117.118C352.452 117.118 354.893 117.571 357.265 118.478C359.706 119.385 361.764 120.675 363.438 122.349C366.995 125.767 368.774 130.301 368.774 135.951C368.774 141.392 367.518 146.972 365.007 152.692C362.496 158.411 360.299 163.12 358.416 166.817C356.532 170.444 354.719 174.106 352.975 177.803C347.883 188.893 345.337 197.124 345.337 202.495C345.337 206.262 346.872 208.145 349.941 208.145C352.87 208.145 355.521 207.517 357.892 206.262C360.334 205.006 361.903 204.379 362.601 204.379C364.066 204.379 364.798 205.111 364.798 206.576C364.798 212.784 361.624 217.98 355.277 222.165C351.022 225.025 347.116 226.455 343.558 226.455C340.071 226.455 337.246 226.037 335.083 225.2C332.921 224.363 330.968 223.037 329.224 221.224C325.318 217.178 323.365 212.121 323.365 206.053C323.365 199.984 324.132 194.404 325.667 189.312C327.201 184.22 329.015 179.302 331.107 174.559C333.2 169.746 335.293 165.352 337.385 161.376C339.548 157.33 341.187 154.122 342.303 151.75C344.535 146.867 345.651 143.275 345.651 140.973C345.651 138.253 344.221 136.893 341.361 136.893C337.594 136.893 330.828 143.136 321.063 155.621C313.669 165.317 308.542 172.292 305.683 176.547L298.463 187.01C294.417 194.683 291.313 201.065 289.151 206.157L283.815 218.294C282.49 221.294 281.339 223.421 280.362 224.677C279.386 225.862 278.026 226.455 276.282 226.455C274.538 226.455 272.829 226.176 271.155 225.618C269.551 225.06 268.156 224.328 266.97 223.421C264.249 221.398 262.889 219.271 262.889 217.039C262.889 214.737 263.622 211.633 265.086 207.727C266.621 203.751 268.504 199.321 270.736 194.439L285.385 163.469C290.616 151.959 293.232 144.67 293.232 141.601C293.232 138.462 291.802 136.893 288.942 136.893ZM299.3 166.398C299.37 166.398 299.405 166.363 299.405 166.294L299.509 166.084C299.37 166.224 299.3 166.328 299.3 166.398Z" fill="#22C27D" style="fill:#22C27D;fill:color(display-p3 0.1334 0.7627 0.4900);fill-opacity:1;"/>
</svg>
